<svg width="25" height="24" viewBox="0 0 25 24" fill="none" xmlns="http://www.w3.org/2000/svg">
<path fill-rule="evenodd" clip-rule="evenodd" d="M14.1807 4.9998H14.0957C11.9912 4.99963 9.9714 5.82875 8.47395 7.30748C6.9765 8.78621 6.12205 10.7954 6.09574 12.8998L2.48174 15.7098C2.37109 15.7978 2.28016 15.9081 2.21481 16.0334C2.14947 16.1588 2.11117 16.2965 2.10241 16.4376C2.09364 16.5787 2.1146 16.7201 2.16392 16.8526C2.21325 16.9851 2.28984 17.1058 2.38874 17.2068C2.53188 17.3531 2.70309 17.469 2.89211 17.5475C3.08113 17.6261 3.28406 17.6656 3.48874 17.6638C3.70874 17.6648 3.92474 17.6218 4.14374 17.5978C4.41574 17.5678 4.86074 17.5458 5.68974 17.9138C6.75374 18.3868 7.83274 18.9218 8.81774 19.3068C9.83574 19.7038 10.8897 19.9998 12.0327 19.9998C14.2567 19.9998 16.5097 18.8878 19.3667 16.1358C19.9771 16.1033 20.5866 16.0563 21.1947 15.9948C21.4416 15.9702 21.6705 15.8548 21.837 15.6709C22.0035 15.4871 22.0957 15.2479 22.0957 14.9998V12.9998C22.0957 11.406 21.6198 9.84855 20.729 8.52695C19.8382 7.20536 18.5731 6.17984 17.0957 5.5818V5.4998C17.0963 5.14556 16.9714 4.80256 16.7433 4.53156C16.5152 4.26056 16.1985 4.07904 15.8493 4.01915C15.5002 3.95927 15.1411 4.02488 14.8357 4.20436C14.5303 4.38385 14.2983 4.66563 14.1807 4.9998ZM5.65874 15.7738L7.59574 14.2658C10.6827 15.4208 13.4407 16.0088 16.3257 16.1478C14.5107 17.5728 13.1757 17.9998 12.0317 17.9998C11.2387 17.9998 10.4477 17.7958 9.54374 17.4428C8.60774 17.0778 7.68674 16.6128 6.50074 16.0858C6.22708 15.963 5.94544 15.8587 5.65774 15.7738H5.65874Z" fill="#8B939D"/>
</svg>
