<svg width="18" height="19" viewBox="0 0 18 19" fill="none" xmlns="http://www.w3.org/2000/svg">
<path d="M8.64545 1.85762C7.51848 1.85762 6.4331 2.28401 5.62922 3.05007C4.82452 3.8169 4.36767 4.86224 4.36767 5.95762C4.36767 7.05299 4.82452 8.09833 5.62922 8.86517C6.4331 9.63122 7.51848 10.0576 8.64545 10.0576C9.77242 10.0576 10.8578 9.63122 11.6617 8.86517C12.4664 8.09833 12.9232 7.05299 12.9232 5.95762C12.9232 4.86224 12.4664 3.8169 11.6617 3.05007C10.8578 2.28401 9.77242 1.85762 8.64545 1.85762ZM3.47878 5.95762C3.47878 4.66605 4.01697 3.4222 4.98344 2.50121C5.95073 1.57944 7.26759 1.05762 8.64545 1.05762C10.0233 1.05762 11.3402 1.57944 12.3075 2.50121C13.2739 3.4222 13.8121 4.66605 13.8121 5.95762C13.8121 7.24919 13.2739 8.49303 12.3075 9.41403C11.3402 10.3358 10.0233 10.8576 8.64545 10.8576C7.26759 10.8576 5.95073 10.3358 4.98344 9.41403C4.01697 8.49303 3.47878 7.24919 3.47878 5.95762ZM4.86767 14.4576C3.99118 14.4576 3.14603 14.7892 2.51927 15.3865C1.89168 15.9845 1.53434 16.8009 1.53434 17.6576C1.53434 17.7557 1.49367 17.855 1.41278 17.932C1.33108 18.0099 1.21533 18.0576 1.08989 18.0576C0.964447 18.0576 0.848705 18.0099 0.767002 17.932C0.686117 17.855 0.645447 17.7557 0.645447 17.6576C0.645447 16.6047 1.08413 15.5898 1.87349 14.8376C2.66366 14.0846 3.7403 13.6576 4.86767 13.6576H12.4232C13.5506 13.6576 14.6272 14.0846 15.4174 14.8376C16.2068 15.5898 16.6454 16.6047 16.6454 17.6576C16.6454 17.7557 16.6048 17.855 16.5239 17.932C16.4422 18.0099 16.3264 18.0576 16.201 18.0576C16.0756 18.0576 15.9598 18.0099 15.8781 17.932C15.7972 17.855 15.7566 17.7557 15.7566 17.6576C15.7566 16.8009 15.3992 15.9845 14.7716 15.3865C14.1449 14.7892 13.2997 14.4576 12.4232 14.4576H4.86767Z" fill="#324054" stroke="#324054"/>
</svg>
