<svg width="25" height="18" viewBox="0 0 25 18" fill="none" xmlns="http://www.w3.org/2000/svg">
<mask id="path-1-inside-1_946_357" fill="white">
<path d="M24.3228 8.83678V12.868C24.0996 14.1055 23.374 14.0268 22.3971 14.1299C22.3296 14.1362 22.2934 14.1737 22.2884 14.2424C21.9921 17.9324 17.1228 17.9737 16.7103 14.2443C16.704 14.1955 16.6765 14.1712 16.6278 14.1712L7.624 14.1655C7.54775 14.1655 7.5065 14.2043 7.50025 14.2818C7.23775 17.9062 2.36838 18.0093 1.9315 14.233C1.924 14.168 1.88775 14.1355 1.82275 14.1355C0.964004 14.1305 0.464004 13.7005 0.322754 12.8455V2.34553C0.581504 0.547406 1.72338 0.245531 3.4165 0.247406C6.46775 0.251156 9.52025 0.249281 12.574 0.241781C14.7209 0.236156 16.2659 0.513657 16.1103 3.04116C16.1094 3.05484 16.1115 3.06854 16.1164 3.08133C16.1213 3.09413 16.1289 3.10572 16.1387 3.11532C16.1485 3.12493 16.1602 3.13231 16.1731 3.13699C16.186 3.14166 16.1997 3.14351 16.2134 3.14241C17.569 3.03366 19.744 2.84053 20.4678 4.28991C20.9228 5.19991 21.394 6.10178 21.8815 6.99553C21.9128 7.05303 21.959 7.09241 22.0203 7.11366C23.0759 7.47741 24.1259 7.79241 24.3228 8.83678ZM1.50025 8.96616H14.944C14.9719 8.96616 14.9986 8.95509 15.0182 8.9354C15.0379 8.91571 15.049 8.889 15.049 8.86116V2.59116C15.049 2.25301 14.9095 1.9287 14.6613 1.68959C14.413 1.45049 14.0763 1.31616 13.7253 1.31616H2.719C2.36792 1.31616 2.03122 1.45049 1.78297 1.68959C1.53472 1.9287 1.39525 2.25301 1.39525 2.59116V8.86116C1.39525 8.889 1.40632 8.91571 1.42601 8.9354C1.4457 8.95509 1.47241 8.96616 1.50025 8.96616ZM16.2265 6.87178L20.509 6.91116C20.5204 6.91158 20.5317 6.90895 20.5417 6.90354C20.5518 6.89812 20.5602 6.8901 20.5663 6.88027C20.5723 6.87043 20.5758 6.85912 20.5762 6.84744C20.5767 6.83576 20.5742 6.82412 20.569 6.81366C20.1828 6.05428 19.5509 4.32928 18.6509 4.22991C18.0134 4.15866 17.2078 4.15053 16.234 4.20553C16.1578 4.21053 16.1196 4.25053 16.1196 4.32553V6.76303C16.1196 6.83428 16.1553 6.87053 16.2265 6.87178ZM17.0871 12.9899C18.2365 11.0305 20.8859 10.9949 21.9621 12.9937C21.9971 13.0599 22.0521 13.093 22.1271 13.093L22.9821 13.0893C23.0519 13.0888 23.1187 13.0609 23.1679 13.0117C23.217 12.9626 23.2446 12.8961 23.2446 12.8268V8.88553C23.2447 8.85544 23.2361 8.82596 23.2198 8.80067C23.2035 8.77538 23.1802 8.75536 23.1528 8.74303C22.429 8.40553 21.6659 7.94616 20.8503 7.93866C19.3128 7.92491 17.7665 7.92616 16.2115 7.94241C16.1503 7.94366 16.1196 7.97491 16.1196 8.03616V12.973C16.1196 13.0518 16.159 13.0912 16.2378 13.0912H16.9109C16.9884 13.0912 17.0471 13.0574 17.0871 12.9899ZM2.79963 12.2999C4.159 11.0099 6.23838 11.3437 7.17025 12.988C7.20775 13.0568 7.26588 13.0912 7.34463 13.0912H14.9215C14.9978 13.0912 15.0359 13.053 15.0359 12.9768L15.0528 10.138C15.0528 10.1132 15.0429 10.0893 15.0253 10.0717C15.0077 10.0542 14.9839 10.0443 14.959 10.0443H1.49463C1.43213 10.0443 1.40088 10.0755 1.40088 10.138V12.8155C1.40088 12.8818 1.42775 12.9349 1.4815 12.9749C2.18275 13.4868 2.43213 12.6468 2.79963 12.2999ZM6.40713 14.2762C6.40713 13.8321 6.23072 13.4062 5.91672 13.0922C5.60271 12.7782 5.17683 12.6018 4.73275 12.6018C4.28868 12.6018 3.8628 12.7782 3.54879 13.0922C3.23479 13.4062 3.05838 13.8321 3.05838 14.2762C3.05838 14.496 3.10169 14.7138 3.18583 14.9169C3.26998 15.1201 3.39331 15.3046 3.54879 15.4601C3.70427 15.6156 3.88885 15.7389 4.092 15.8231C4.29514 15.9072 4.51287 15.9505 4.73275 15.9505C4.95264 15.9505 5.17036 15.9072 5.37351 15.8231C5.57665 15.7389 5.76124 15.6156 5.91672 15.4601C6.0722 15.3046 6.19553 15.1201 6.27967 14.9169C6.36382 14.7138 6.40713 14.496 6.40713 14.2762ZM21.1859 14.278C21.1859 13.834 21.0095 13.4081 20.6955 13.0941C20.3815 12.7801 19.9556 12.6037 19.5115 12.6037C19.2916 12.6037 19.0739 12.647 18.8707 12.7311C18.6676 12.8153 18.483 12.9386 18.3275 13.0941C18.1721 13.2495 18.0487 13.4341 17.9646 13.6373C17.8804 13.8404 17.8371 14.0581 17.8371 14.278C17.8371 14.4979 17.8804 14.7156 17.9646 14.9188C18.0487 15.1219 18.1721 15.3065 18.3275 15.462C18.483 15.6175 18.6676 15.7408 18.8707 15.825C19.0739 15.9091 19.2916 15.9524 19.5115 15.9524C19.9556 15.9524 20.3815 15.776 20.6955 15.462C21.0095 15.148 21.1859 14.7221 21.1859 14.278Z"/>
</mask>
<path d="M24.3228 8.83678H25.3228V8.74335L25.3054 8.65153L24.3228 8.83678ZM24.3228 12.868L25.3069 13.0455L25.3228 12.9575V12.868H24.3228ZM22.3971 14.1299L22.4893 15.1257L22.5021 15.1244L22.3971 14.1299ZM22.2884 14.2424L23.2852 14.3224L23.2857 14.3149L22.2884 14.2424ZM16.7103 14.2443L17.7042 14.1343L17.7032 14.1257L17.7021 14.1171L16.7103 14.2443ZM16.6278 14.1712L16.6271 15.1712H16.6278V14.1712ZM7.624 14.1655L7.62463 13.1655H7.624V14.1655ZM7.50025 14.2818L6.50346 14.2014L6.50287 14.2095L7.50025 14.2818ZM1.9315 14.233L0.938095 14.3477L0.93813 14.348L1.9315 14.233ZM1.82275 14.1355L1.81693 15.1355H1.82275V14.1355ZM0.322754 12.8455H-0.677246V12.9276L-0.663873 13.0085L0.322754 12.8455ZM0.322754 2.34553L-0.667051 2.2031L-0.677246 2.27395V2.34553H0.322754ZM3.4165 0.247406L3.41773 -0.752593L3.41761 -0.752593L3.4165 0.247406ZM12.574 0.241781L12.5765 1.24178L12.5766 1.24178L12.574 0.241781ZM16.1103 3.04116L17.1083 3.10321L17.1084 3.10261L16.1103 3.04116ZM16.2134 3.14241L16.1334 2.14561L16.133 2.14564L16.2134 3.14241ZM20.4678 4.28991L19.5731 4.73666L19.5733 4.73712L20.4678 4.28991ZM21.8815 6.99553L22.7601 6.51802L22.7594 6.51668L21.8815 6.99553ZM22.0203 7.11366L21.6925 8.05841L21.6945 8.0591L22.0203 7.11366ZM15.049 2.59116L16.049 2.59116L15.049 2.59116ZM13.7253 1.31616L13.7253 2.31616L13.7253 1.31616ZM2.719 1.31616V2.31616V1.31616ZM1.39525 2.59116H0.395254H1.39525ZM1.39525 8.86116L0.395254 8.86116L1.39525 8.86116ZM16.2265 6.87178L16.209 7.87166L16.2173 7.87174L16.2265 6.87178ZM20.509 6.91116L20.5461 5.91184L20.5321 5.91133L20.5182 5.9112L20.509 6.91116ZM20.569 6.81366L21.4638 6.3671L21.4603 6.36029L20.569 6.81366ZM18.6509 4.22991L18.5398 5.22372L18.5411 5.22387L18.6509 4.22991ZM16.234 4.20553L16.1776 3.20708L16.1686 3.20767L16.234 4.20553ZM17.0871 12.9899L17.9474 13.4997L17.9497 13.4959L17.0871 12.9899ZM21.9621 12.9937L22.8464 12.5265L22.8426 12.5196L21.9621 12.9937ZM22.1271 13.093L22.1271 14.093L22.1315 14.093L22.1271 13.093ZM22.9821 13.0893L22.9865 14.0893L22.9892 14.0893L22.9821 13.0893ZM23.2446 12.8268L24.2446 12.8268V12.8268H23.2446ZM23.2446 8.88553L22.2446 8.88212V8.88553H23.2446ZM23.1528 8.74303L22.7301 9.64933L22.7366 9.65235L22.7431 9.65528L23.1528 8.74303ZM20.8503 7.93866L20.8594 6.9387L20.8592 6.9387L20.8503 7.93866ZM16.2115 7.94241L16.2011 6.94241L16.1911 6.94261L16.2115 7.94241ZM2.79963 12.2999L3.48604 13.0271L3.48798 13.0253L2.79963 12.2999ZM7.17025 12.988L8.04815 12.5092L8.04426 12.5021L8.04026 12.495L7.17025 12.988ZM15.0359 12.9768L14.0359 12.9708V12.9768H15.0359ZM15.0528 10.138L16.0528 10.144V10.138H15.0528ZM1.4815 12.9749L0.884468 13.7772L0.891921 13.7826L1.4815 12.9749ZM6.40713 14.2762L7.40713 14.2762L6.40713 14.2762ZM4.73275 12.6018L4.73275 11.6018L4.73275 12.6018ZM3.05838 14.2762H2.05838H3.05838ZM4.73275 15.9505L4.73275 16.9505L4.73275 15.9505ZM21.1859 14.278H22.1859H21.1859ZM17.8371 14.278L16.8371 14.278L17.8371 14.278ZM23.3228 8.83678V12.868H25.3228V8.83678H23.3228ZM23.3386 12.6906C23.2989 12.9108 23.2504 12.9925 23.2388 13.0096C23.2374 13.0117 23.2463 13.0062 23.2351 13.0112C23.2029 13.0255 23.128 13.049 22.9531 13.0712C22.8689 13.0818 22.7759 13.0907 22.6625 13.1008C22.554 13.1104 22.4247 13.1214 22.2921 13.1354L22.5021 15.1244C22.6722 15.1064 22.9987 15.0814 23.2044 15.0553C23.4473 15.0246 23.7509 14.9711 24.0501 14.8376C24.3703 14.6947 24.6635 14.4704 24.8915 14.1359C25.1092 13.8165 25.235 13.444 25.3069 13.0455L23.3386 12.6906ZM22.3049 13.1342C22.1058 13.1526 21.8293 13.2308 21.6003 13.4677C21.3733 13.7025 21.305 13.9777 21.291 14.1699L23.2857 14.3149C23.2768 14.4384 23.2291 14.6604 23.0383 14.8577C22.8456 15.0571 22.621 15.1135 22.4893 15.1256L22.3049 13.1342ZM21.2916 14.1624C21.1855 15.4833 20.3312 16.0223 19.5388 16.0256C18.7441 16.0289 17.8542 15.4907 17.7042 14.1343L15.7163 14.3542C15.9788 16.7272 17.7299 18.0331 19.547 18.0256C21.3665 18.0181 23.095 16.6915 23.2852 14.3224L21.2916 14.1624ZM17.7021 14.1171C17.6787 13.9347 17.5966 13.6612 17.3482 13.4411C17.0988 13.22 16.8154 13.1712 16.6278 13.1712V15.1712C16.4889 15.1712 16.2436 15.1345 16.0216 14.9378C15.8008 14.7421 15.7355 14.5051 15.7184 14.3714L17.7021 14.1171ZM16.6284 13.1712L7.62463 13.1655L7.62338 15.1655L16.6271 15.1712L16.6284 13.1712ZM7.624 13.1655C7.42156 13.1655 7.11388 13.219 6.85121 13.4657C6.59151 13.7097 6.51905 14.0084 6.50349 14.2014L8.49702 14.3622C8.4877 14.4777 8.439 14.7182 8.22055 14.9234C7.99913 15.1314 7.7502 15.1655 7.624 15.1655V13.1655ZM6.50287 14.2095C6.41038 15.4865 5.57312 16.0285 4.77606 16.0327C3.98501 16.0368 3.08518 15.5037 2.92488 14.1181L0.93813 14.348C1.21471 16.7386 2.968 18.0421 4.78648 18.0326C6.59895 18.0232 8.32762 16.7015 8.49764 14.354L6.50287 14.2095ZM2.92491 14.1184C2.9029 13.9277 2.82097 13.6437 2.56623 13.4153C2.31056 13.1861 2.01775 13.1355 1.82275 13.1355V15.1355C1.69276 15.1355 1.45058 15.1012 1.23115 14.9045C1.01266 14.7086 0.952605 14.4734 0.938095 14.3477L2.92491 14.1184ZM1.82858 13.1355C1.56352 13.134 1.47733 13.0697 1.45573 13.0511C1.433 13.0315 1.35392 12.9521 1.30938 12.6825L-0.663873 13.0085C-0.567158 13.5939 -0.325616 14.157 0.151652 14.5675C0.63005 14.9789 1.22323 15.1321 1.81693 15.1355L1.82858 13.1355ZM1.32275 12.8455V2.34553H-0.677246V12.8455H1.32275ZM1.31256 2.48796C1.41025 1.80907 1.63219 1.6006 1.82472 1.49151C2.10804 1.33097 2.58237 1.24648 3.4154 1.24741L3.41761 -0.752593C2.55751 -0.753546 1.61434 -0.688036 0.838755 -0.24857C-0.0276222 0.242339 -0.505993 1.08387 -0.667051 2.2031L1.31256 2.48796ZM3.41527 1.24741C6.46775 1.25116 9.52148 1.24928 12.5765 1.24178L12.5715 -0.758216C9.51902 -0.750719 6.46775 -0.748844 3.41773 -0.752593L3.41527 1.24741ZM12.5766 1.24178C13.6803 1.23889 14.325 1.32738 14.6876 1.54694C14.8281 1.63201 14.9276 1.7395 15.0001 1.91633C15.0812 2.11376 15.1452 2.44203 15.1121 2.9797L17.1084 3.10261C17.1531 2.37653 17.0824 1.72231 16.8504 1.15701C16.61 0.571136 16.2182 0.135694 15.7235 -0.16385C14.8158 -0.713502 13.6146 -0.760949 12.5714 -0.758215L12.5766 1.24178ZM15.1122 2.9791C15.1024 3.13587 15.1265 3.29286 15.1827 3.43944L17.0501 2.72323C17.0965 2.84421 17.1164 2.9738 17.1083 3.10321L15.1122 2.9791ZM15.1827 3.43944C15.239 3.58605 15.326 3.71886 15.4381 3.82889L16.8393 2.40176C16.9318 2.49258 17.0037 2.60222 17.0501 2.72323L15.1827 3.43944ZM15.4381 3.82889C15.5502 3.93889 15.6845 4.02354 15.8322 4.07708L16.514 2.19689C16.6359 2.24109 16.7468 2.31096 16.8393 2.40176L15.4381 3.82889ZM15.8322 4.07708C15.9798 4.13062 16.1372 4.15179 16.2937 4.13917L16.133 2.14564C16.2622 2.13523 16.3921 2.15269 16.514 2.19689L15.8322 4.07708ZM16.2933 4.1392C16.9971 4.08275 17.7609 4.02159 18.4307 4.12102C19.1006 4.22046 19.4255 4.44102 19.5731 4.73666L21.3624 3.84316C20.7863 2.68942 19.6618 2.28185 18.7244 2.1427C17.7868 2.00353 16.7853 2.09331 16.1334 2.14561L16.2933 4.1392ZM19.5733 4.73712C20.0337 5.65777 20.5104 6.57019 21.0036 7.47438L22.7594 6.51668C22.2776 5.63337 21.8119 4.74204 21.3622 3.84269L19.5733 4.73712ZM21.0029 7.47304C21.1519 7.7472 21.3934 7.95464 21.6925 8.05841L22.348 6.1689C22.4267 6.1962 22.5103 6.24068 22.5879 6.30675C22.6654 6.37272 22.7216 6.44719 22.7601 6.51802L21.0029 7.47304ZM21.6945 8.0591C22.2698 8.25735 22.6697 8.38945 22.9741 8.57447C23.2292 8.72961 23.309 8.8575 23.3401 9.02203L25.3054 8.65153C25.1396 7.77168 24.5959 7.21989 24.013 6.8655C23.4792 6.54098 22.8263 6.33371 22.346 6.16821L21.6945 8.0591ZM1.50025 9.96616H14.944V7.96616H1.50025V9.96616ZM14.944 9.96616C15.2371 9.96616 15.5181 9.84974 15.7254 9.64251L14.3111 8.2283C14.479 8.06045 14.7066 7.96616 14.944 7.96616V9.96616ZM15.7254 9.64251C15.9326 9.43529 16.049 9.15424 16.049 8.86116H14.049C14.049 8.62377 14.1433 8.39613 14.3111 8.2283L15.7254 9.64251ZM16.049 8.86116V2.59116H14.049V8.86116H16.049ZM16.049 2.59116C16.049 1.97542 15.7947 1.39285 15.355 0.96935L13.9676 2.40984C14.0244 2.46455 14.049 2.53059 14.049 2.59116L16.049 2.59116ZM15.355 0.96935C14.9166 0.547075 14.3297 0.316156 13.7253 0.316156L13.7253 2.31616C13.823 2.31616 13.9095 2.3539 13.9676 2.40984L15.355 0.96935ZM13.7253 0.316156H2.719V2.31616H13.7253V0.316156ZM2.719 0.316156C2.11456 0.316156 1.52767 0.547075 1.08925 0.96935L2.47669 2.40984C2.53477 2.3539 2.62128 2.31616 2.719 2.31616L2.719 0.316156ZM1.08925 0.96935C0.649554 1.39285 0.395254 1.97542 0.395254 2.59116L2.39525 2.59116C2.39525 2.53059 2.41989 2.46455 2.47669 2.40984L1.08925 0.96935ZM0.395254 2.59116V8.86116H2.39525V2.59116H0.395254ZM0.395254 8.86116C0.395254 9.15422 0.511673 9.43528 0.718901 9.64251L2.13311 8.2283C2.30096 8.39614 2.39525 8.62379 2.39525 8.86116L0.395254 8.86116ZM0.718901 9.64251C0.92614 9.84975 1.20721 9.96616 1.50025 9.96616V7.96616C1.73761 7.96616 1.96526 8.06044 2.13311 8.2283L0.718901 9.64251ZM16.2173 7.87174L20.4998 7.91111L20.5182 5.9112L16.2357 5.87182L16.2173 7.87174ZM20.4719 7.91047C20.6616 7.9175 20.8495 7.8737 21.0164 7.78368L20.067 6.0234C20.2138 5.9442 20.3793 5.90566 20.5461 5.91184L20.4719 7.91047ZM21.0164 7.78368C21.1832 7.69371 21.3209 7.56202 21.4179 7.40436L19.7146 6.35617C19.7995 6.21818 19.9203 6.10253 20.067 6.0234L21.0164 7.78368ZM21.4179 7.40436C21.5148 7.24689 21.568 7.06888 21.5754 6.88837L19.5771 6.80651C19.5835 6.64936 19.6298 6.49397 19.7146 6.35617L21.4179 7.40436ZM21.5754 6.88837C21.5828 6.708 21.5444 6.52865 21.4638 6.36712L19.6742 7.2602C19.6041 7.11958 19.5706 6.96353 19.5771 6.80651L21.5754 6.88837ZM21.4603 6.36029C21.3297 6.1034 20.9946 5.32499 20.6632 4.76497C20.4831 4.4607 20.2559 4.12835 19.975 3.85372C19.6978 3.58261 19.2927 3.29469 18.7606 3.23595L18.5411 5.22387C18.4591 5.21481 18.4705 5.17978 18.5769 5.28379C18.6797 5.38428 18.8033 5.54927 18.942 5.78359C19.2481 6.30076 19.4221 6.76453 19.6777 7.26702L21.4603 6.36029ZM18.762 3.23609C18.0482 3.15632 17.1816 3.15041 16.1776 3.20712L16.2904 5.20394C17.2339 5.15065 17.9786 5.16099 18.5398 5.22372L18.762 3.23609ZM16.1686 3.20767C15.9766 3.22026 15.6733 3.28814 15.4244 3.54934C15.1726 3.81349 15.1196 4.12465 15.1196 4.32553H17.1196C17.1196 4.45141 17.0857 4.70507 16.8721 4.92922C16.6613 5.15042 16.4151 5.1958 16.2994 5.20339L16.1686 3.20767ZM15.1196 4.32553V6.76303H17.1196V4.32553H15.1196ZM15.1196 6.76303C15.1196 6.95426 15.1683 7.27514 15.4331 7.54459C15.6979 7.814 16.0178 7.86827 16.209 7.87163L16.244 5.87193C16.3639 5.87404 16.6304 5.90956 16.8596 6.14273C17.0887 6.37592 17.1196 6.64306 17.1196 6.76303H15.1196ZM17.9497 13.4959C18.7356 12.1561 20.404 12.2093 21.0817 13.4678L22.8426 12.5196C21.3677 9.78049 17.7374 9.90499 16.2246 12.4839L17.9497 13.4959ZM21.0779 13.4608C21.1661 13.6276 21.3059 13.7996 21.5137 13.9248C21.7215 14.05 21.9388 14.093 22.1271 14.093V12.093C22.2405 12.093 22.3928 12.1195 22.5456 12.2116C22.6984 12.3036 22.7932 12.426 22.8463 12.5265L21.0779 13.4608ZM22.1315 14.093L22.9865 14.0893L22.9777 12.0893L22.1227 12.093L22.1315 14.093ZM22.9892 14.0893C23.3207 14.0869 23.6392 13.9546 23.875 13.7188L22.4607 12.3046C22.5981 12.1673 22.7831 12.0907 22.975 12.0893L22.9892 14.0893ZM23.875 13.7188C24.1109 13.4829 24.2446 13.1624 24.2446 12.8268L22.2446 12.8268C22.2446 12.6298 22.3231 12.4422 22.4607 12.3046L23.875 13.7188ZM24.2446 12.8268V8.88553H22.2446V12.8268H24.2446ZM24.2446 8.88894C24.2454 8.66548 24.1813 8.4466 24.0603 8.25879L22.3793 9.34254C22.2909 9.20532 22.2441 9.04539 22.2446 8.88212L24.2446 8.88894ZM24.0603 8.25879C23.9392 8.071 23.7662 7.92232 23.5624 7.83078L22.7431 9.65528C22.5942 9.5884 22.4678 9.47976 22.3793 9.34254L24.0603 8.25879ZM23.5754 7.83673C23.2896 7.70348 22.8204 7.45882 22.4171 7.29257C21.9788 7.11188 21.4488 6.94412 20.8594 6.9387L20.8411 8.93861C21.0673 8.94069 21.3267 9.00637 21.6548 9.14162C22.0179 9.2913 22.2921 9.44508 22.7301 9.64933L23.5754 7.83673ZM20.8592 6.9387C19.3152 6.92489 17.7624 6.92614 16.2011 6.94246L16.222 8.94235C17.7706 8.92617 19.3103 8.92492 20.8413 8.93862L20.8592 6.9387ZM16.1911 6.94261C16.0048 6.94642 15.6896 7.00033 15.4284 7.26685C15.1672 7.53341 15.1196 7.8497 15.1196 8.03616H17.1196C17.1196 8.16136 17.0874 8.4314 16.8568 8.66671C16.6262 8.90198 16.357 8.93965 16.2319 8.9422L16.1911 6.94261ZM15.1196 8.03616V12.973H17.1196V8.03616H15.1196ZM15.1196 12.973C15.1196 13.1665 15.1687 13.4954 15.4421 13.7687C15.7154 14.0421 16.0442 14.0912 16.2378 14.0912V12.0912C16.3525 12.0912 16.6223 12.1205 16.8563 12.3545C17.0903 12.5885 17.1196 12.8583 17.1196 12.973H15.1196ZM16.2378 14.0912H16.9109V12.0912H16.2378V14.0912ZM16.9109 14.0912C17.347 14.0912 17.7301 13.8664 17.9474 13.4997L16.2268 12.4801C16.2807 12.3892 16.3726 12.2805 16.5149 12.1987C16.6578 12.1166 16.8004 12.0912 16.9109 12.0912V14.0912ZM3.48798 13.0253C4.36158 12.1963 5.67908 12.385 6.30025 13.4811L8.04026 12.495C6.79768 10.3023 3.95643 9.82354 2.11127 11.5745L3.48798 13.0253ZM6.29236 13.4669C6.38342 13.6338 6.52542 13.8034 6.73293 13.9261C6.94015 14.0487 7.15628 14.0912 7.34463 14.0912V12.0912C7.45423 12.0912 7.60192 12.1165 7.75102 12.2046C7.9004 12.293 7.99458 12.411 8.04815 12.5092L6.29236 13.4669ZM7.34463 14.0912H14.9215V12.0912H7.34463V14.0912ZM14.9215 14.0912C15.1138 14.0912 15.4417 14.0424 15.7144 13.7697C15.9871 13.4969 16.0359 13.1691 16.0359 12.9768H14.0359C14.0359 12.8608 14.0656 12.5901 14.3002 12.3555C14.5348 12.1208 14.8055 12.0912 14.9215 12.0912V14.0912ZM16.0359 12.9827L16.0527 10.144L14.0528 10.1321L14.0359 12.9708L16.0359 12.9827ZM16.0528 10.138C16.0528 9.84795 15.9375 9.56975 15.7324 9.36463L14.3182 10.7788C14.1482 10.6089 14.0528 10.3784 14.0528 10.138H16.0528ZM15.7324 9.36463C15.5273 9.15951 15.2491 9.04428 14.959 9.04428V11.0443C14.7187 11.0443 14.4881 10.9488 14.3182 10.7788L15.7324 9.36463ZM14.959 9.04428H1.49463V11.0443H14.959V9.04428ZM1.49463 9.04428C1.30923 9.04428 0.986514 9.09131 0.71721 9.36061C0.447905 9.62992 0.400879 9.95264 0.400879 10.138H2.40088C2.40088 10.2609 2.36948 10.5368 2.13142 10.7748C1.89337 11.0129 1.61752 11.0443 1.49463 11.0443V9.04428ZM0.400879 10.138V12.8155H2.40088V10.138H0.400879ZM0.400879 12.8155C0.400879 13.2021 0.580578 13.551 0.884493 13.7771L2.07851 12.1727C2.1602 12.2335 2.24852 12.3255 2.31335 12.4537C2.37838 12.5822 2.40088 12.7097 2.40088 12.8155H0.400879ZM0.891921 13.7826C1.19082 14.0008 1.57751 14.1725 2.0266 14.1296C2.46806 14.0875 2.77761 13.8554 2.96069 13.6785C3.13505 13.51 3.27499 13.3105 3.34893 13.2078C3.39455 13.1444 3.42456 13.1029 3.45246 13.0674C3.47994 13.0325 3.4899 13.0235 3.48603 13.0271L2.11322 11.5727C2.01748 11.6631 1.93926 11.7562 1.88002 11.8315C1.8212 11.9064 1.76596 11.9835 1.72556 12.0396C1.62747 12.1759 1.59233 12.2195 1.57076 12.2404C1.55789 12.2528 1.65065 12.1564 1.83664 12.1387C2.03026 12.1202 2.12281 12.205 2.07109 12.1672L0.891921 13.7826ZM7.40713 14.2762C7.40713 13.5669 7.12536 12.8866 6.62382 12.3851L5.20961 13.7993C5.33608 13.9258 5.40713 14.0973 5.40713 14.2762L7.40713 14.2762ZM6.62382 12.3851C6.12228 11.8835 5.44204 11.6018 4.73275 11.6018L4.73275 13.6018C4.91161 13.6018 5.08314 13.6728 5.20961 13.7993L6.62382 12.3851ZM4.73275 11.6018C4.02346 11.6018 3.34323 11.8835 2.84169 12.3851L4.2559 13.7993C4.38237 13.6728 4.5539 13.6018 4.73275 13.6018L4.73275 11.6018ZM2.84169 12.3851C2.34014 12.8866 2.05838 13.5669 2.05838 14.2762L4.05838 14.2762C4.05838 14.0973 4.12943 13.9258 4.2559 13.7993L2.84169 12.3851ZM2.05838 14.2762C2.05838 14.6274 2.12755 14.9751 2.26195 15.2996L4.10971 14.5342C4.07582 14.4524 4.05838 14.3647 4.05838 14.2762H2.05838ZM2.26195 15.2996C2.39635 15.6241 2.59335 15.9189 2.84169 16.1672L4.2559 14.753C4.19328 14.6904 4.1436 14.616 4.10971 14.5342L2.26195 15.2996ZM2.84169 16.1672C3.09002 16.4156 3.38484 16.6126 3.70931 16.747L4.47468 14.8992C4.39286 14.8653 4.31852 14.8156 4.2559 14.753L2.84169 16.1672ZM3.70931 16.747C4.03378 16.8814 4.38155 16.9505 4.73275 16.9505L4.73275 14.9505C4.64419 14.9505 4.5565 14.9331 4.47468 14.8992L3.70931 16.747ZM4.73275 16.9505C5.08396 16.9505 5.43172 16.8814 5.75619 16.747L4.99083 14.8992C4.90901 14.9331 4.82131 14.9505 4.73275 14.9505L4.73275 16.9505ZM5.75619 16.747C6.08066 16.6126 6.37548 16.4156 6.62382 16.1672L5.20961 14.753C5.14699 14.8156 5.07264 14.8653 4.99083 14.8992L5.75619 16.747ZM6.62382 16.1672C6.87216 15.9189 7.06915 15.6241 7.20355 15.2996L5.3558 14.5342C5.32191 14.616 5.27223 14.6904 5.20961 14.753L6.62382 16.1672ZM7.20355 15.2996C7.33795 14.9751 7.40713 14.6274 7.40713 14.2762H5.40713C5.40713 14.3647 5.38969 14.4524 5.3558 14.5342L7.20355 15.2996ZM22.1859 14.278C22.1859 13.5687 21.9041 12.8885 21.4026 12.387L19.9884 13.8012C20.1148 13.9276 20.1859 14.0992 20.1859 14.278H22.1859ZM21.4026 12.387C20.901 11.8854 20.2208 11.6037 19.5115 11.6037V13.6037C19.6904 13.6037 19.8619 13.6747 19.9884 13.8012L21.4026 12.387ZM19.5115 11.6037C19.1603 11.6037 18.8125 11.6728 18.4881 11.8072L19.2534 13.655C19.3353 13.6211 19.4229 13.6037 19.5115 13.6037V11.6037ZM18.4881 11.8072C18.1636 11.9416 17.8688 12.1386 17.6204 12.387L19.0346 13.8012C19.0973 13.7386 19.1716 13.6889 19.2534 13.655L18.4881 11.8072ZM17.6204 12.387C17.3721 12.6353 17.1751 12.9301 17.0407 13.2546L18.8885 14.02C18.9224 13.9381 18.972 13.8638 19.0346 13.8012L17.6204 12.387ZM17.0407 13.2546C16.9063 13.5791 16.8371 13.9268 16.8371 14.278L18.8371 14.278C18.8371 14.1895 18.8546 14.1018 18.8885 14.02L17.0407 13.2546ZM16.8371 14.278C16.8371 14.6292 16.9063 14.977 17.0407 15.3015L18.8885 14.5361C18.8546 14.4543 18.8371 14.3666 18.8371 14.278L16.8371 14.278ZM17.0407 15.3015C17.1751 15.6259 17.3721 15.9208 17.6204 16.1691L19.0346 14.7549C18.972 14.6923 18.9224 14.6179 18.8885 14.5361L17.0407 15.3015ZM17.6204 16.1691C17.8688 16.4174 18.1636 16.6144 18.4881 16.7488L19.2534 14.9011C19.1716 14.8672 19.0973 14.8175 19.0346 14.7549L17.6204 16.1691ZM18.4881 16.7488C18.8125 16.8832 19.1603 16.9524 19.5115 16.9524V14.9524C19.4229 14.9524 19.3353 14.935 19.2534 14.9011L18.4881 16.7488ZM19.5115 16.9524C20.2208 16.9524 20.901 16.6706 21.4026 16.1691L19.9884 14.7549C19.8619 14.8814 19.6904 14.9524 19.5115 14.9524V16.9524ZM21.4026 16.1691C21.9041 15.6676 22.1859 14.9873 22.1859 14.278L20.1859 14.278C20.1859 14.4569 20.1148 14.6284 19.9884 14.7549L21.4026 16.1691Z" fill="#324054" mask="url(#path-1-inside-1_946_357)"/>
</svg>
