<svg width="27" height="27" viewBox="0 0 27 27" fill="none" xmlns="http://www.w3.org/2000/svg">
<g clip-path="url(#clip0_935_380)">
<path d="M26.9244 13.2964V17.6636C26.6827 19.0043 25.8966 18.9189 24.8383 19.0307C24.7652 19.0374 24.7259 19.0781 24.7205 19.1525C24.3996 23.15 19.1244 23.1947 18.6776 19.1546C18.6708 19.1018 18.641 19.0754 18.5882 19.0754L8.83413 19.0693C8.75152 19.0693 8.70683 19.1112 8.70006 19.1952C8.41569 23.1216 3.14053 23.2333 2.66725 19.1424C2.65913 19.072 2.61986 19.0368 2.54944 19.0368C1.61913 19.0313 1.07746 18.5655 0.924438 17.6393V6.26426C1.20475 4.31629 2.44178 3.98926 4.276 3.99129C7.58152 3.99535 10.8884 3.99332 14.1966 3.9852C16.5224 3.9791 18.1962 4.27973 18.0276 7.01785C18.0266 7.03267 18.0289 7.04752 18.0342 7.06138C18.0396 7.07524 18.0478 7.0878 18.0584 7.0982C18.069 7.1086 18.0817 7.11661 18.0956 7.12167C18.1096 7.12673 18.1245 7.12873 18.1393 7.12754C19.6079 7.00973 21.9641 6.80051 22.7482 8.37067C23.2411 9.3565 23.7516 10.3335 24.2798 11.3018C24.3136 11.3641 24.3637 11.4067 24.4301 11.4297C25.5737 11.8238 26.7112 12.165 26.9244 13.2964ZM2.20006 13.4366H16.7641C16.7943 13.4366 16.8232 13.4246 16.8446 13.4033C16.8659 13.382 16.8779 13.353 16.8779 13.3229V6.53035C16.8779 6.16402 16.7268 5.8127 16.4578 5.55366C16.1889 5.29463 15.8242 5.1491 15.4438 5.1491H3.52038C3.14004 5.1491 2.77528 5.29463 2.50634 5.55366C2.2374 5.8127 2.08631 6.16402 2.08631 6.53035V13.3229C2.08631 13.353 2.0983 13.382 2.11963 13.4033C2.14096 13.4246 2.1699 13.4366 2.20006 13.4366ZM18.1535 11.1677L22.7929 11.2104C22.8052 11.2108 22.8174 11.208 22.8283 11.2021C22.8392 11.1962 22.8484 11.1875 22.8549 11.1769C22.8615 11.1662 22.8652 11.154 22.8657 11.1413C22.8662 11.1287 22.8635 11.1161 22.8579 11.1047C22.4394 10.2821 21.7549 8.41332 20.7799 8.30567C20.0893 8.22848 19.2165 8.21968 18.1616 8.27926C18.079 8.28468 18.0377 8.32801 18.0377 8.40926V11.0499C18.0377 11.1271 18.0763 11.1663 18.1535 11.1677ZM19.0858 17.7957C20.331 15.673 23.2012 15.6344 24.3671 17.7997C24.405 17.8715 24.4646 17.9074 24.5458 17.9074L25.4721 17.9033C25.5477 17.9028 25.62 17.8726 25.6733 17.8193C25.7266 17.766 25.7565 17.694 25.7565 17.6189V13.3493C25.7566 13.3167 25.7472 13.2847 25.7296 13.2573C25.7119 13.2299 25.6867 13.2082 25.6569 13.1949C24.8729 12.8293 24.0462 12.3316 23.1626 12.3235C21.4969 12.3086 19.8218 12.3099 18.1373 12.3275C18.0709 12.3289 18.0377 12.3627 18.0377 12.4291V17.7774C18.0377 17.8627 18.0804 17.9054 18.1657 17.9054H18.8949C18.9789 17.9054 19.0425 17.8688 19.0858 17.7957ZM3.60772 17.0482C5.08038 15.6507 7.33303 16.0122 8.34256 17.7936C8.38319 17.8681 8.44616 17.9054 8.53147 17.9054H16.7398C16.8224 17.9054 16.8637 17.864 16.8637 17.7814L16.8819 14.7061C16.8819 14.6792 16.8712 14.6534 16.8522 14.6343C16.8331 14.6153 16.8073 14.6046 16.7804 14.6046H2.19397C2.12626 14.6046 2.09241 14.6384 2.09241 14.7061V17.6068C2.09241 17.6785 2.12152 17.7361 2.17975 17.7794C2.93944 18.3339 3.20959 17.4239 3.60772 17.0482ZM7.51584 19.1891C7.51584 18.708 7.32474 18.2467 6.98456 17.9065C6.64439 17.5663 6.18302 17.3752 5.70194 17.3752C5.22086 17.3752 4.75949 17.5663 4.41931 17.9065C4.07914 18.2467 3.88803 18.708 3.88803 19.1891C3.88803 19.4273 3.93495 19.6632 4.02611 19.8833C4.11726 20.1033 4.25088 20.3033 4.41931 20.4717C4.58775 20.6402 4.78771 20.7738 5.00779 20.8649C5.22786 20.9561 5.46373 21.003 5.70194 21.003C5.94014 21.003 6.17602 20.9561 6.39609 20.8649C6.61616 20.7738 6.81613 20.6402 6.98456 20.4717C7.153 20.3033 7.28661 20.1033 7.37777 19.8833C7.46893 19.6632 7.51584 19.4273 7.51584 19.1891ZM23.5262 19.1911C23.5262 18.7101 23.3351 18.2487 22.9949 17.9085C22.6547 17.5683 22.1933 17.3772 21.7122 17.3772C21.474 17.3772 21.2382 17.4241 21.0181 17.5153C20.798 17.6065 20.5981 17.7401 20.4296 17.9085C20.2612 18.0769 20.1276 18.2769 20.0364 18.497C19.9453 18.7171 19.8983 18.9529 19.8983 19.1911C19.8983 19.4293 19.9453 19.6652 20.0364 19.8853C20.1276 20.1054 20.2612 20.3053 20.4296 20.4738C20.5981 20.6422 20.798 20.7758 21.0181 20.867C21.2382 20.9581 21.474 21.005 21.7122 21.005C22.1933 21.005 22.6547 20.8139 22.9949 20.4738C23.3351 20.1336 23.5262 19.6722 23.5262 19.1911Z" fill="white"/>
</g>
<defs>
<clipPath id="clip0_935_380">
<rect width="26" height="26" fill="white" transform="translate(0.924438 0.0810547)"/>
</clipPath>
</defs>
</svg>
