<svg width="33" height="32" viewBox="0 0 33 32" fill="none" xmlns="http://www.w3.org/2000/svg">
<g filter="url(#filter0_d_466_3408)">
<rect x="2.0835" width="28" height="28" rx="14" fill="#FAFAFA"/>
<path d="M11 12.5667H19.4333V14.1H11V12.5667ZM11 11.0333H19.4333V9.5H11V11.0333ZM11 17.1667H16.3667V15.6333H11V17.1667ZM22.5077 14.767L23.052 14.2227C23.1229 14.1516 23.2072 14.0952 23.2999 14.0567C23.3927 14.0183 23.4921 13.9985 23.5925 13.9985C23.6929 13.9985 23.7923 14.0183 23.8851 14.0567C23.9778 14.0952 24.0621 14.1516 24.133 14.2227L24.6773 14.767C24.9763 15.066 24.9763 15.549 24.6773 15.848L24.133 16.3923L22.5077 14.767ZM21.9633 15.3113L17.9 19.3747V21H19.5253L23.5887 16.9367L21.9633 15.3113Z" fill="#219653"/>
<rect x="2.5835" y="0.5" width="27" height="27" rx="13.5" stroke="#219653"/>
</g>
<defs>
<filter id="filter0_d_466_3408" x="0.0834961" y="0" width="32" height="32" filterUnits="userSpaceOnUse" color-interpolation-filters="sRGB">
<feFlood flood-opacity="0" result="BackgroundImageFix"/>
<feColorMatrix in="SourceAlpha" type="matrix" values="0 0 0 0 0 0 0 0 0 0 0 0 0 0 0 0 0 0 127 0" result="hardAlpha"/>
<feOffset dy="2"/>
<feGaussianBlur stdDeviation="1"/>
<feComposite in2="hardAlpha" operator="out"/>
<feColorMatrix type="matrix" values="0 0 0 0 0.129412 0 0 0 0 0.588235 0 0 0 0 0.32549 0 0 0 0.22 0"/>
<feBlend mode="normal" in2="BackgroundImageFix" result="effect1_dropShadow_466_3408"/>
<feBlend mode="normal" in="SourceGraphic" in2="effect1_dropShadow_466_3408" result="shape"/>
</filter>
</defs>
</svg>
