<svg width="33" height="32" viewBox="0 0 33 32" fill="none" xmlns="http://www.w3.org/2000/svg">
<g filter="url(#filter0_d_466_3410)">
<rect x="2.0835" width="28" height="28" rx="14" fill="#FAFAFA"/>
<path d="M15.0656 9.64293H18.1013C18.1013 9.24037 17.9414 8.85429 17.6568 8.56964C17.3721 8.28499 16.986 8.12507 16.5835 8.12507C16.1809 8.12507 15.7948 8.28499 15.5102 8.56964C15.2255 8.85429 15.0656 9.24037 15.0656 9.64293ZM14.1549 9.64293C14.1549 8.99883 14.4108 8.38111 14.8662 7.92567C15.3217 7.47022 15.9394 7.21436 16.5835 7.21436C17.2276 7.21436 17.8453 7.47022 18.3007 7.92567C18.7562 8.38111 19.0121 8.99883 19.0121 9.64293H22.8067C22.9275 9.64293 23.0433 9.6909 23.1287 9.7763C23.2141 9.86169 23.2621 9.97752 23.2621 10.0983C23.2621 10.2191 23.2141 10.3349 23.1287 10.4203C23.0433 10.5057 22.9275 10.5536 22.8067 10.5536H22.0113L21.2724 19.4197C21.2187 20.0647 20.9245 20.666 20.4482 21.1042C19.972 21.5425 19.3484 21.7857 18.7012 21.7858H14.4658C13.8185 21.7857 13.195 21.5425 12.7187 21.1042C12.2424 20.666 11.9483 20.0647 11.8945 19.4197L11.1556 10.5536H10.3603C10.2395 10.5536 10.1237 10.5057 10.0383 10.4203C9.95288 10.3349 9.90491 10.2191 9.90491 10.0983C9.90491 9.97752 9.95288 9.86169 10.0383 9.7763C10.1237 9.6909 10.2395 9.64293 10.3603 9.64293H14.1549ZM15.6728 13.134C15.6728 13.0132 15.6248 12.8974 15.5394 12.812C15.454 12.7266 15.3382 12.6786 15.2174 12.6786C15.0966 12.6786 14.9808 12.7266 14.8954 12.812C14.81 12.8974 14.7621 13.0132 14.7621 13.134V18.2947C14.7621 18.4155 14.81 18.5313 14.8954 18.6167C14.9808 18.7021 15.0966 18.7501 15.2174 18.7501C15.3382 18.7501 15.454 18.7021 15.5394 18.6167C15.6248 18.5313 15.6728 18.4155 15.6728 18.2947V13.134ZM17.9496 12.6786C17.8288 12.6786 17.713 12.7266 17.6276 12.812C17.5422 12.8974 17.4942 13.0132 17.4942 13.134V18.2947C17.4942 18.4155 17.5422 18.5313 17.6276 18.6167C17.713 18.7021 17.8288 18.7501 17.9496 18.7501C18.0703 18.7501 18.1861 18.7021 18.2715 18.6167C18.3569 18.5313 18.4049 18.4155 18.4049 18.2947V13.134C18.4049 13.0132 18.3569 12.8974 18.2715 12.812C18.1861 12.7266 18.0703 12.6786 17.9496 12.6786Z" fill="#219653"/>
<rect x="2.5835" y="0.5" width="27" height="27" rx="13.5" stroke="#219653"/>
</g>
<defs>
<filter id="filter0_d_466_3410" x="0.0834961" y="0" width="32" height="32" filterUnits="userSpaceOnUse" color-interpolation-filters="sRGB">
<feFlood flood-opacity="0" result="BackgroundImageFix"/>
<feColorMatrix in="SourceAlpha" type="matrix" values="0 0 0 0 0 0 0 0 0 0 0 0 0 0 0 0 0 0 127 0" result="hardAlpha"/>
<feOffset dy="2"/>
<feGaussianBlur stdDeviation="1"/>
<feComposite in2="hardAlpha" operator="out"/>
<feColorMatrix type="matrix" values="0 0 0 0 0.129412 0 0 0 0 0.588235 0 0 0 0 0.32549 0 0 0 0.22 0"/>
<feBlend mode="normal" in2="BackgroundImageFix" result="effect1_dropShadow_466_3410"/>
<feBlend mode="normal" in="SourceGraphic" in2="effect1_dropShadow_466_3410" result="shape"/>
</filter>
</defs>
</svg>
