<svg width="25" height="25" viewBox="0 0 25 25" fill="none" xmlns="http://www.w3.org/2000/svg">
<g clip-path="url(#clip0_935_126)">
<path d="M10.7325 0.0856934H15.1387C16.12 0.214443 16.9506 0.630068 17.6306 1.33257C17.6743 1.37757 17.7281 1.40007 17.7918 1.40007C20.3062 1.38507 22.4381 0.906943 22.44 4.22194C22.4412 9.90444 22.4406 15.5869 22.4381 21.2694C22.4362 22.7938 22.0893 23.8138 20.5068 24.0857H5.31933C3.75746 23.8007 3.41246 22.7863 3.41058 21.2732C3.40808 15.5632 3.40746 9.85382 3.40871 4.14507C3.41058 0.895693 5.65496 1.38507 8.06433 1.40007C8.12683 1.40007 8.17996 1.37757 8.22371 1.33257C8.90246 0.622568 9.73871 0.206943 10.7325 0.0856934ZM8.86683 3.18132L16.9593 3.17757C17.0406 3.17757 17.0668 3.14007 17.0381 3.06507C16.23 0.963193 13.6368 1.47882 11.6906 1.49382C10.2637 1.50319 9.36746 1.75444 8.77683 3.04069C8.76994 3.0558 8.76694 3.07239 8.76811 3.08896C8.76929 3.10552 8.77459 3.12153 8.78354 3.13551C8.79249 3.1495 8.8048 3.16102 8.81935 3.16902C8.8339 3.17702 8.85023 3.18125 8.86683 3.18132ZM7.98183 4.58194C7.05371 4.58007 7.19058 3.56007 7.36683 2.93944C7.38808 2.86319 7.35933 2.82319 7.28058 2.81944C6.30933 2.77257 4.81496 2.42757 4.81496 3.79257C4.81496 9.78132 4.81496 15.7707 4.81496 21.7607C4.81496 22.2276 5.02121 22.6776 5.51808 22.6776C10.3981 22.6801 15.2775 22.6801 20.1562 22.6776C20.6025 22.6776 21.0337 22.4394 21.0337 21.9763C21.0337 15.8926 21.0337 9.80882 21.0337 3.72507C21.0337 2.42007 19.4362 2.79882 18.5868 2.80632C18.5156 2.80757 18.4862 2.84382 18.4987 2.91507C18.6337 3.66132 18.8587 4.57819 17.7225 4.58194C14.475 4.58819 11.2281 4.58819 7.98183 4.58194Z" fill="white"/>
<path d="M16.3087 9.33319C15.63 10.0119 14.9506 10.6913 14.2706 11.3713C13.9275 11.7144 13.5056 11.6019 13.1737 11.2757C12.5275 10.6369 11.8812 9.99194 11.235 9.34069C11.2235 9.32866 11.2097 9.31906 11.1944 9.31245C11.1792 9.30584 11.1627 9.30235 11.1459 9.30217C11.1292 9.302 11.1125 9.30515 11.0969 9.31144C11.0813 9.31773 11.0671 9.32703 11.055 9.33881C10.3925 9.99756 9.72248 10.6676 9.04498 11.3488C8.51811 11.8794 7.40061 11.0301 8.21998 10.2069C9.04873 9.37444 9.87873 8.54381 10.71 7.71506C10.9931 7.43006 11.445 7.58944 11.7187 7.86131C12.3725 8.50756 13.0269 9.16069 13.6819 9.82069C13.6929 9.83209 13.7061 9.84119 13.7207 9.84747C13.7352 9.85374 13.7509 9.85706 13.7668 9.85724C13.7826 9.85741 13.7984 9.85444 13.8131 9.84848C13.8278 9.84253 13.8412 9.83372 13.8525 9.82256L15.3019 8.37131C15.3153 8.35768 15.325 8.34074 15.3298 8.32219C15.3346 8.30364 15.3344 8.28415 15.3293 8.26569C15.3241 8.24723 15.3142 8.23046 15.3005 8.21706C15.2868 8.20367 15.2698 8.19414 15.2512 8.18944C14.3025 7.94756 14.5406 6.80756 15.5719 6.79069C16.53 6.77381 17.91 6.52631 17.8781 7.72819C17.8669 8.15381 17.9362 9.36319 17.7187 9.67631C17.3212 10.2501 16.6275 9.97256 16.4531 9.37069C16.4256 9.27694 16.3775 9.26444 16.3087 9.33319Z" fill="white"/>
<path d="M8.52746 15.0256C8.89121 14.6469 9.33559 14.03 9.86246 13.925C10.3481 13.8275 10.7268 14.2325 10.6218 14.7144C10.515 15.2094 9.54934 15.9931 9.01496 16.5181C8.20121 17.3206 7.33684 16.1131 6.98621 15.5525C6.94996 15.495 6.93934 15.4325 6.95434 15.365C7.15871 14.4388 7.78871 14.6 8.36434 15.0388C8.42309 15.0825 8.47746 15.0781 8.52746 15.0256Z" fill="white"/>
<path d="M18.135 14.6658H12.4462C12.0682 14.6658 11.7618 14.9722 11.7618 15.3501V15.3801C11.7618 15.7581 12.0682 16.0645 12.4462 16.0645H18.135C18.5129 16.0645 18.8193 15.7581 18.8193 15.3801V15.3501C18.8193 14.9722 18.5129 14.6658 18.135 14.6658Z" fill="white"/>
<path d="M8.4693 19.1245C8.80868 18.7514 9.43493 17.9545 9.9543 17.9301C10.4193 17.9076 10.7774 18.427 10.6068 18.8676C10.4099 19.3701 9.14055 20.4445 8.94743 20.6245C8.29118 21.2376 7.68743 20.4445 7.28243 20.0058C6.41243 19.0626 7.72118 18.1702 8.33055 19.1133C8.3379 19.1245 8.34773 19.1339 8.35928 19.1408C8.37082 19.1476 8.38378 19.1518 8.39717 19.1529C8.41056 19.1539 8.42402 19.152 8.43652 19.147C8.44902 19.1421 8.46023 19.1344 8.4693 19.1245Z" fill="white"/>
<path d="M18.133 18.697H12.448C12.0701 18.697 11.7637 19.0034 11.7637 19.3814V19.4114C11.7637 19.7894 12.0701 20.0958 12.448 20.0958H18.133C18.511 20.0958 18.8174 19.7894 18.8174 19.4114V19.3814C18.8174 19.0034 18.511 18.697 18.133 18.697Z" fill="white"/>
</g>
<defs>
<clipPath id="clip0_935_126">
<rect width="24" height="24" fill="white" transform="translate(0.924316 0.0856934)"/>
</clipPath>
</defs>
</svg>
