<svg width="25" height="25" viewBox="0 0 25 25" fill="none" xmlns="http://www.w3.org/2000/svg">
<g clip-path="url(#clip0_946_360)">
<path d="M16.3962 2.2336L16.3954 2.23281C15.8022 1.62002 15.086 1.25703 14.2292 1.13818H9.88777C9.01945 1.25017 8.29982 1.61277 7.70921 2.23057L7.7063 2.23361L7.70629 2.2336C7.56884 2.37497 7.38661 2.45256 7.18842 2.45256H7.1853V2.45255C6.90125 2.45078 6.61984 2.44257 6.35039 2.4347C6.32757 2.43404 6.30484 2.43337 6.28219 2.43272C5.98961 2.42423 5.71229 2.41684 5.44732 2.41819C4.91109 2.4209 4.46822 2.4601 4.11315 2.57617C3.77411 2.687 3.52562 2.86399 3.35011 3.15436C3.16609 3.45881 3.03325 3.93632 3.03279 4.69767L16.3962 2.2336ZM16.3962 2.2336C16.5357 2.37713 16.7195 2.45256 16.9159 2.45257L16.9189 2.45255M16.3962 2.2336L16.9189 2.45255M16.9189 2.45255C17.2313 2.45069 17.5118 2.44284 17.7789 2.43537M16.9189 2.45255L17.7789 2.43537M7.98886 4.23381V4.2338C7.88871 4.23339 7.79025 4.20789 7.7025 4.15963C7.61475 4.11137 7.54048 4.04189 7.48649 3.95753L7.48648 3.95752C7.4325 3.87317 7.40051 3.77664 7.39345 3.67674L7.98886 4.23381ZM7.98886 4.23381L7.99115 4.23381M7.98886 4.23381L7.99115 4.23381M7.99115 4.23381L16.0834 4.23006C16.0835 4.23006 16.0836 4.23006 16.0836 4.23006C16.1645 4.23003 16.4137 4.21715 16.5737 3.98867C16.7359 3.75689 16.6586 3.51582 16.629 3.43859L16.6289 3.43812M7.99115 4.23381L16.6289 3.43812M16.6289 3.43812C16.1337 2.15018 15.0718 1.68747 13.9811 1.54247C13.4427 1.47089 12.8775 1.47235 12.341 1.49019C12.129 1.49724 11.926 1.50655 11.7292 1.51557C11.4106 1.53017 11.1085 1.54402 10.8111 1.54632M16.6289 3.43812L7.44603 3.38564M7.44603 3.38564L7.44653 3.38454C7.78067 2.65686 8.22764 2.17341 8.8308 1.88875C9.40984 1.61547 10.0821 1.55113 10.8111 1.54632M7.44603 3.38564C7.40446 3.47675 7.38638 3.57682 7.39344 3.67673L7.44603 3.38564ZM10.8111 1.54632C10.8112 1.54632 10.8113 1.54632 10.8114 1.54632L10.8147 2.04631L10.8108 1.54632C10.8109 1.54632 10.811 1.54632 10.8111 1.54632ZM6.97256 3.62616L6.9719 3.62853C6.88798 3.92403 6.83777 4.2417 6.8764 4.45684C6.894 4.55485 6.9224 4.58748 6.93175 4.59607L6.93196 4.59626C6.93616 4.60019 6.97251 4.63416 7.10693 4.63443L6.97256 3.62616ZM6.97256 3.62616C6.99931 3.53018 7.03658 3.31506 6.8913 3.11293C6.74564 2.91027 6.52928 2.87735 6.42877 2.87251C6.29216 2.86592 6.17008 2.8554 6.03615 2.84386C5.9194 2.83379 5.79364 2.82295 5.64142 2.81327C5.35583 2.79509 5.0331 2.78703 4.72931 2.83522C4.42593 2.88334 4.08969 2.99549 3.83013 3.26108C3.56103 3.53643 3.43904 3.90942 3.43904 4.34506V4.38015V4.41524V4.45033V4.48542V4.52051V4.5556V4.59069V4.62578V4.66087V4.69596V4.73105V4.76614V4.80123V4.83632V4.87142V4.90651V4.9416V4.97669V5.01178V5.04687V5.08196V5.11705V5.15214V5.18723V5.22232V5.25741V5.2925V5.32759V5.36268V5.39778V5.43287V5.46796V5.50305V5.53814V5.57323V5.60832V5.64341V5.6785V5.71359V5.74868V5.78377V5.81887V5.85396V5.88905V5.92414V5.95923V5.99432V6.02941V6.0645V6.09959V6.13468V6.16978V6.20487V6.23996V6.27505V6.31014V6.34523V6.38032V6.41541V6.4505V6.4856V6.52069V6.55578V6.59087V6.62596V6.66105V6.69614V6.73123V6.76633V6.80142V6.83651V6.8716V6.90669V6.94178V6.97687V7.01197V7.04706V7.08215V7.11724V7.15233V7.18742V7.22251V7.25761V7.2927V7.32779V7.36288V7.39797V7.43306V7.46815V7.50325V7.53834V7.57343V7.60852V7.64361V7.6787V7.7138V7.74889V7.78398V7.81907V7.85416V7.88926V7.92435V7.95944V7.99453V8.02962V8.06471V8.09981V8.1349V8.16999V8.20508V8.24017V8.27527V8.31036V8.34545V8.38054V8.41563V8.45073V8.48582V8.52091V8.556V8.59109V8.62619V8.66128V8.69637V8.73146V8.76655V8.80165V8.83674V8.87183V8.90692V8.94201V8.97711V9.0122V9.04729V9.08238V9.11748V9.15257V9.18766V9.22275V9.25784V9.29294V9.32803V9.36312V9.39821V9.43331V9.4684V9.50349V9.53858V9.57368V9.60877V9.64386V9.67895V9.71405V9.74914V9.78423V9.81932V9.85442V9.88951V9.9246V9.95969V9.99479V10.0299V10.065V10.1001V10.1352V10.1703V10.2053V10.2404V10.2755V10.3106V10.3457V10.3808V10.4159V10.451V10.4861V10.5212V10.5563V10.5914V10.6265V10.6616V10.6966V10.7317V10.7668V10.8019V10.837V10.8721V10.9072V10.9423V10.9774V11.0125V11.0476V11.0827V11.1178V11.1529V11.1879V11.223V11.2581V11.2932V11.3283V11.3634V11.3985V11.4336V11.4687V11.5038V11.5389V11.574V11.6091V11.6442V11.6793V11.7143V11.7494V11.7845V11.8196V11.8547V11.8898V11.9249V11.96V11.9951V12.0302V12.0653V12.1004V12.1355V12.1706V12.2057V12.2407V12.2758V12.3109V12.346V12.3811V12.4162V12.4513V12.4864V12.5215V12.5566V12.5917V12.6268V12.6619V12.697V12.7321V12.7671V12.8022V12.8373V12.8724V12.9075V12.9426V12.9777V13.0128V13.0479V13.083V13.1181V13.1532V13.1883V13.2234V13.2585V13.2936V13.3287V13.3637V13.3988V13.4339V13.469V13.5041V13.5392V13.5743V13.6094V13.6445V13.6796V13.7147V13.7498V13.7849V13.82V13.8551V13.8902V13.9253V13.9603V13.9954V14.0305V14.0656V14.1007V14.1358V14.1709V14.206V14.2411V14.2762V14.3113V14.3464V14.3815V14.4166V14.4517V14.4868V14.5219V14.557V14.592V14.6271V14.6622V14.6973V14.7324V14.7675V14.8026V14.8377V14.8728V14.9079V14.943V14.9781V15.0132V15.0483V15.0834V15.1185V15.1536V15.1887V15.2237V15.2588V15.2939V15.329V15.3641V15.3992V15.4343V15.4694V15.5045V15.5396V15.5747V15.6098V15.6449V15.68V15.7151V15.7502V15.7853V15.8204V15.8555V15.8906V15.9256V15.9607V15.9958V16.0309V16.066V16.1011V16.1362V16.1713V16.2064V16.2415V16.2766V16.3117V16.3468V16.3819V16.417V16.4521V16.4872V16.5223V16.5574V16.5925V16.6276V16.6626V16.6977V16.7328V16.7679V16.803V16.8381V16.8732V16.9083V16.9434V16.9785V17.0136V17.0487V17.0838V17.1189V17.154V17.1891V17.2242V17.2593V17.2944V17.3295V17.3646V17.3997V17.4347V17.4698V17.5049V17.54V17.5751V17.6102V17.6453V17.6804V17.7155V17.7506V17.7857V17.8208V17.8559V17.891V17.9261V17.9612V17.9963V18.0314V18.0665V18.1016V18.1367V18.1718V18.2069V18.242V18.277V18.3121V18.3472V18.3823V18.4174V18.4525V18.4876V18.5227V18.5578V18.5929V18.628V18.6631V18.6982V18.7333V18.7684V18.8035V18.8386V18.8737V18.9088V18.9439V18.979V19.0141V19.0492V19.0843V19.1194V19.1545V19.1895V19.2246V19.2597V19.2948V19.3299V19.365V19.4001V19.4352V19.4703V19.5054V19.5405V19.5756V19.6107V19.6458V19.6809V19.716V19.7511V19.7862V19.8213V19.8564V19.8915V19.9266V19.9617V19.9968V20.0319V20.067V20.1021V20.1372V20.1723V20.2073V20.2424V20.2775V20.3126V20.3477V20.3828V20.4179V20.453V20.4881V20.5232V20.5583V20.5934V20.6285V20.6636V20.6987V20.7338V20.7689V20.804V20.8391V20.8742V20.9093V20.9444V20.9795V21.0146V21.0497V21.0848V21.1199V21.155V21.1901V21.2252V21.2603V21.2954V21.3305V21.3656V21.4006V21.4357V21.4708V21.5059V21.541V21.5761V21.6112V21.6463V21.6814V21.7165V21.7516V21.7867V21.8218V21.8569V21.892V21.9271V21.9622V21.9973V22.0324V22.0675V22.1026V22.1377V22.1728V22.2079V22.243V22.2781V22.3132C3.43904 22.6096 3.5029 22.9455 3.68799 23.2237C3.88813 23.5245 4.21539 23.73 4.64191 23.7301C9.52208 23.7326 14.4016 23.7326 19.2805 23.7301C19.5845 23.73 19.912 23.6502 20.1779 23.4593C20.4583 23.258 20.6578 22.938 20.6578 22.5288V22.4932V22.4575V22.4219V22.3862V22.3506V22.3149V22.2793V22.2436V22.208V22.1723V22.1367V22.101V22.0654V22.0298V21.9941V21.9585V21.9228V21.8872V21.8515V21.8159V21.7802V21.7446V21.7089V21.6733V21.6376V21.602V21.5663V21.5307V21.495V21.4594V21.4238V21.3881V21.3525V21.3168V21.2812V21.2455V21.2099V21.1742V21.1386V21.1029V21.0673V21.0316V20.996V20.9603V20.9247V20.889V20.8534V20.8178V20.7821V20.7465V20.7108V20.6752V20.6395V20.6039V20.5682V20.5326V20.4969V20.4613V20.4256V20.39V20.3543V20.3187V20.283V20.2474V20.2118V20.1761V20.1405V20.1048V20.0692V20.0335V19.9979V19.9622V19.9266V19.8909V19.8553V19.8196V19.784V19.7483V19.7127V19.6771V19.6414V19.6058V19.5701V19.5345V19.4988V19.4632V19.4275V19.3919V19.3562V19.3206V19.2849V19.2493V19.2136V19.178V19.1423V19.1067V19.0711V19.0354V18.9998V18.9641V18.9285V18.8928V18.8572V18.8215V18.7859V18.7502V18.7146V18.6789V18.6433V18.6076V18.572V18.5363V18.5007V18.4651V18.4294V18.3938V18.3581V18.3225V18.2868V18.2512V18.2155V18.1799V18.1442V18.1086V18.0729V18.0373V18.0016V17.966V17.9303V17.8947V17.8591V17.8234V17.7878V17.7521V17.7165V17.6808V17.6452V17.6095V17.5739V17.5382V17.5026V17.4669V17.4313V17.3956V17.36V17.3244V17.2887V17.2531V17.2174V17.1818V17.1461V17.1105V17.0748V17.0392V17.0035V16.9679V16.9322V16.8966V16.8609V16.8253V16.7896V16.754V16.7184V16.6827V16.6471V16.6114V16.5758V16.5401V16.5045V16.4688V16.4332V16.3975V16.3619V16.3262V16.2906V16.2549V16.2193V16.1836V16.148V16.1124V16.0767V16.0411V16.0054V15.9698V15.9341V15.8985V15.8628V15.8272V15.7915V15.7559V15.7202V15.6846V15.6489V15.6133V15.5776V15.542V15.5064V15.4707V15.4351V15.3994V15.3638V15.3281V15.2925V15.2568V15.2212V15.1855V15.1499V15.1142V15.0786V15.0429V15.0073V14.9717V14.936V14.9004V14.8647V14.8291V14.7934V14.7578V14.7221V14.6865V14.6508V14.6152V14.5795V14.5439V14.5082V14.4726V14.4369V14.4013V14.3657V14.33V14.2944V14.2587V14.2231V14.1874V14.1518V14.1161V14.0805V14.0448V14.0092V13.9735V13.9379V13.9022V13.8666V13.8309V13.7953V13.7597V13.724V13.6884V13.6527V13.6171V13.5814V13.5458V13.5101V13.4745V13.4388V13.4032V13.3675V13.3319V13.2962V13.2606V13.2249V13.1893V13.1537V13.118V13.0824V13.0467V13.0111V12.9754V12.9398V12.9041V12.8685V12.8328V12.7972V12.7615V12.7259V12.6902V12.6546V12.619V12.5833V12.5477V12.512V12.4764V12.4407V12.4051V12.3694V12.3338V12.2981V12.2625V12.2268V12.1912V12.1555V12.1199V12.0842V12.0486V12.013V11.9773V11.9417V11.906V11.8704V11.8347V11.7991V11.7634V11.7278V11.6921V11.6565V11.6208V11.5852V11.5495V11.5139V11.4782V11.4426V11.407V11.3713V11.3357V11.3V11.2644V11.2287V11.1931V11.1574V11.1218V11.0861V11.0505V11.0148V10.9792V10.9435V10.9079V10.8722V10.8366V10.801V10.7653V10.7297V10.694V10.6584V10.6227V10.5871V10.5514V10.5158V10.4801V10.4445V10.4088V10.3732V10.3375V10.3019V10.2663V10.2306V10.195V10.1593V10.1237V10.088V10.0524V10.0167V9.98107V9.94543V9.90978V9.87413V9.83849V9.80284V9.76719V9.73155V9.6959V9.66025V9.62461V9.58896V9.55331V9.51766V9.48202V9.44637V9.41072V9.37508V9.33943V9.30378V9.26814V9.23249V9.19684V9.16119V9.12555V9.0899V9.05425V9.01861V8.98296V8.94731V8.91166V8.87602V8.84037V8.80472V8.76908V8.73343V8.69778V8.66214V8.62649V8.59084V8.5552V8.51955V8.4839V8.44825V8.41261V8.37696V8.34131V8.30567V8.27002V8.23437V8.19873V8.16308V8.12743V8.09178V8.05614V8.02049V7.98484V7.9492V7.91355V7.8779V7.84226V7.80661V7.77096V7.73532V7.69967V7.66402V7.62837V7.59273V7.55708V7.52143V7.48579V7.45014V7.41449V7.37885V7.3432V7.30755V7.2719V7.23626V7.20061V7.16496V7.12932V7.09367V7.05802V7.02238V6.98673V6.95108V6.91543V6.87979V6.84414V6.80849V6.77285V6.7372V6.70155V6.66591V6.63026V6.59461V6.55896V6.52332V6.48767V6.45202V6.41638V6.38073V6.34508V6.30944V6.27379V6.23814V6.2025V6.16685V6.1312V6.09555V6.05991V6.02426V5.98861V5.95297V5.91732V5.88167V5.84603V5.81038V5.77473V5.73908V5.70344V5.66779V5.63214V5.5965V5.56085V5.5252V5.48956V5.45391V5.41826V5.38261V5.34697V5.31132V5.27567V5.24003V5.20438V5.16873V5.13309V5.09744V5.06179V5.02614V4.9905V4.95485V4.9192V4.88356V4.84791V4.81226V4.77662V4.74097V4.70532V4.66968V4.63403V4.59838V4.56273V4.52709V4.49144V4.45579V4.42015V4.3845V4.34885V4.31321V4.27756C20.6578 3.84077 20.519 3.47346 20.2308 3.21207C19.9604 2.96677 19.6182 2.87034 19.319 2.83039C19.016 2.78993 18.6966 2.80006 18.4216 2.81658C18.3174 2.82284 18.2226 2.82968 18.1351 2.83599C17.9721 2.84774 17.8341 2.8577 17.7065 2.85881L17.7021 2.85889C17.5974 2.86072 17.3948 2.8897 17.247 3.07214C17.101 3.25233 17.1128 3.45402 17.1303 3.55396L17.1303 3.55396L17.1308 3.55657C17.1378 3.5956 17.1449 3.63364 17.1517 3.67086C17.1799 3.82392 17.2056 3.96312 17.2216 4.10036C17.2416 4.27121 17.24 4.3925 17.2224 4.4751C17.2073 4.54573 17.1871 4.56217 17.1744 4.5713C17.1515 4.58773 17.0677 4.63367 16.8451 4.63444L6.97256 3.62616ZM17.7789 2.43537C18.0942 2.42655 18.3906 2.41825 18.6983 2.42096M17.7789 2.43537L18.6983 2.42096M18.6983 2.42096C19.2385 2.4257 19.6742 2.46818 20.0188 2.58731M18.6983 2.42096L20.0188 2.58731M20.0188 2.58731C20.3451 2.70012 20.5851 2.87949 20.7559 3.18001M20.0188 2.58731L20.7559 3.18001M20.7559 3.18001C20.9362 3.49715 21.0636 3.99199 21.064 4.77454L20.7559 3.18001ZM16.0834 3.23006H16.0832H16.0834ZM7.99092 3.73381L8.20695 3.73371L8.3553 3.80183C8.36596 3.77863 8.37668 3.7559 8.38747 3.73362L7.99092 3.73381ZM15.6952 3.79637C15.6951 3.79602 15.6948 3.79518 15.6943 3.79387L15.6953 3.79652L15.6952 3.79637ZM21.064 4.77472C21.0653 10.4569 21.0647 16.1391 21.0622 21.8213C21.0613 22.564 20.9724 23.0856 20.7594 23.4444C20.5706 23.7624 20.2438 24.0175 19.5869 24.1382H4.49017C3.84508 24.0122 3.52213 23.7567 3.33488 23.4387C3.12375 23.0803 3.0356 22.5616 3.03467 21.8253C3.03217 16.1155 3.03154 10.4064 3.03279 4.69785L21.064 4.77472Z" fill="#324054" stroke="#324054"/>
<path d="M14.4538 8.87468L14.9377 9.00037C14.9108 9.10418 14.8569 9.19904 14.7815 9.27532L14.7797 9.27713L14.7797 9.27713L13.3303 10.7284L13.3281 10.7305C13.2698 10.7882 13.2007 10.8337 13.1247 10.8645L14.4538 8.87468ZM14.4538 8.87468L14.9377 9.00037C14.9647 8.89655 14.9638 8.78745 14.935 8.68411L14.935 8.6841C14.9062 8.58077 14.8507 8.48687 14.774 8.41191L14.7739 8.4119C14.6974 8.33711 14.6025 8.28383 14.4988 8.25742M14.4538 8.87468L14.4988 8.25742M14.4988 8.25742C14.3589 8.22176 14.3097 8.16662 14.2949 8.14457C14.2799 8.12231 14.2744 8.09742 14.2814 8.06565C14.293 8.01278 14.3785 7.84844 14.7041 7.84311L14.7047 7.8431C14.8328 7.84084 14.9661 7.83477 15.0947 7.82878L15.116 7.82778C15.2394 7.82202 15.3591 7.81642 15.4778 7.81336C15.7327 7.80679 15.9512 7.81323 16.1283 7.84636C16.3071 7.87983 16.3908 7.93106 16.4294 7.97122C16.4559 7.99874 16.5076 8.06742 16.5023 8.26742L16.5023 8.26747C16.4997 8.366 16.501 8.50025 16.5023 8.6413C16.5026 8.66897 16.5028 8.6969 16.5031 8.72487C16.5046 8.9022 16.5053 9.09521 16.5 9.28268C16.4946 9.47214 16.4833 9.64345 16.4632 9.77903C16.4445 9.90533 16.4248 9.95077 16.4263 9.95146C16.4264 9.9515 16.4265 9.95136 16.4268 9.95104C16.3804 10.0156 16.3438 10.0331 16.33 10.0382C16.3152 10.0436 16.2966 10.0459 16.2689 10.0376C16.2058 10.0188 16.1029 9.94122 16.0574 9.78404L16.0569 9.78244C16.0391 9.72179 15.9532 9.4393 15.6461 9.35955C15.3369 9.27924 15.1243 9.48704 15.0792 9.53212L15.4328 9.88568L15.0792 9.53212L13.0411 11.5702C13.0019 11.6094 12.9739 11.6227 12.9597 11.6277C12.9461 11.6324 12.9312 11.6346 12.9099 11.6316C12.8602 11.6248 12.7658 11.587 12.6487 11.472C12.0045 10.8353 11.3603 10.1924 10.7161 9.54315C10.6592 9.48482 10.5915 9.43828 10.5169 9.40602L10.5169 9.40602C10.4403 9.37286 10.3581 9.35556 10.2752 9.35469H10.2752C10.1923 9.35383 10.1104 9.36941 10.0341 9.40014L10.0341 9.40015C9.95785 9.43087 9.88845 9.47621 9.82977 9.53348L9.82976 9.53346L9.82646 9.53675C9.16328 10.1962 8.49262 10.8668 7.81448 11.5487L7.8142 11.549C7.80216 11.5611 7.78991 11.569 7.7561 11.5654C7.71284 11.5607 7.65501 11.5355 7.60957 11.4889C7.5671 11.4453 7.55268 11.402 7.55311 11.3657C7.55349 11.334 7.56582 11.2453 7.69837 11.1122C8.52666 10.2801 9.35622 9.44994 10.187 8.62164L10.187 8.62164L10.1887 8.61994C10.1897 8.61895 10.1905 8.61824 10.1911 8.61773C10.1953 8.61697 10.2105 8.61519 10.2395 8.62125C10.3113 8.63627 10.4093 8.68799 10.4904 8.76857L10.4912 8.76939C11.1434 9.41405 11.7962 10.0656 12.4496 10.724C12.506 10.7815 12.573 10.8274 12.647 10.8592L12.647 10.8592C12.7223 10.8916 12.8033 10.9088 12.8853 10.9097C12.9673 10.9106 13.0486 10.8952 13.1246 10.8645L14.4988 8.25742Z" fill="#324054" stroke="#324054"/>
<path d="M7.65155 15.5781C8.0153 15.1994 8.45967 14.5825 8.98655 14.4775C9.47217 14.38 9.85092 14.785 9.74592 15.2669C9.63905 15.7619 8.67342 16.5456 8.13905 17.0706C7.3253 17.8731 6.46092 16.6656 6.1103 16.105C6.07405 16.0475 6.06342 15.985 6.07842 15.9175C6.2828 14.9912 6.9128 15.1525 7.48842 15.5912C7.54717 15.635 7.60155 15.6306 7.65155 15.5781Z" fill="#324054"/>
<path d="M17.2591 15.2183H11.5703C11.1923 15.2183 10.8859 15.5247 10.8859 15.9026V15.9326C10.8859 16.3106 11.1923 16.617 11.5703 16.617H17.2591C17.637 16.617 17.9434 16.3106 17.9434 15.9326V15.9026C17.9434 15.5247 17.637 15.2183 17.2591 15.2183Z" fill="#324054"/>
<path d="M7.59339 19.677C7.93276 19.3039 8.55901 18.507 9.07838 18.4826C9.54338 18.4601 9.90151 18.9795 9.73088 19.4201C9.53401 19.9226 8.26464 20.997 8.07151 21.177C7.41526 21.7901 6.81151 20.997 6.40651 20.5583C5.53651 19.6151 6.84526 18.7226 7.45463 19.6658C7.46199 19.677 7.47181 19.6864 7.48336 19.6933C7.49491 19.7001 7.50787 19.7043 7.52126 19.7054C7.53464 19.7064 7.5481 19.7045 7.5606 19.6995C7.5731 19.6946 7.58432 19.6869 7.59339 19.677Z" fill="#324054"/>
<path d="M17.2571 19.2495H11.5721C11.1942 19.2495 10.8878 19.5559 10.8878 19.9339V19.9639C10.8878 20.3419 11.1942 20.6483 11.5721 20.6483H17.2571C17.6351 20.6483 17.9415 20.3419 17.9415 19.9639V19.9339C17.9415 19.5559 17.6351 19.2495 17.2571 19.2495Z" fill="#324054"/>
</g>
<defs>
<clipPath id="clip0_946_360">
<rect width="24" height="24" fill="white" transform="translate(0.0484009 0.638184)"/>
</clipPath>
</defs>
</svg>
