<?xml version="1.0" encoding="UTF-8" standalone="no"?>
<!DOCTYPE svg PUBLIC "-//W3C//DTD SVG 1.1//EN" "http://www.w3.org/Graphics/SVG/1.1/DTD/svg11.dtd">
<svg xmlns="http://www.w3.org/2000/svg" version="1.1" viewBox="0.00 0.00 265.00 266.00">
<path fill="#324054" d="
  M 130.85 0.00
  L 134.04 0.00
  Q 149.24 2.27 155.54 16.06
  A 0.80 0.78 76.7 0 0 156.27 16.52
  C 166.78 16.38 186.42 13.35 181.75 31.27
  A 1.68 1.67 -83.5 0 0 183.42 33.37
  Q 197.77 32.93 212.38 33.50
  C 225.99 34.02 231.71 40.22 231.74 54.00
  Q 231.83 104.50 231.71 247.49
  Q 231.70 263.19 216.47 266.00
  L 48.72 266.00
  C 32.33 263.48 33.03 249.05 33.02 235.49
  Q 32.98 156.62 33.22 77.75
  C 33.25 69.92 32.86 62.17 33.12 54.33
  Q 33.37 47.14 33.70 45.69
  C 37.49 29.21 67.76 32.42 79.75 33.28
  Q 81.51 33.40 82.79 32.86
  A 0.76 0.75 76.4 0 0 83.25 32.09
  Q 83.09 30.24 82.78 28.52
  C 80.11 13.36 100.33 16.62 108.64 16.46
  Q 109.16 16.45 109.39 15.98
  Q 115.75 2.45 130.85 0.00
  Z
  M 100.12 49.71
  C 117.84 50.72 136.17 50.08 153.94 49.74
  Q 158.94 49.65 163.70 50.14
  A 1.88 1.87 -87.1 0 0 165.76 48.27
  L 165.71 34.52
  A 1.44 1.44 0.0 0 0 164.12 33.09
  C 159.37 33.61 150.42 34.30 145.92 32.29
  C 140.13 29.70 140.31 17.21 134.48 16.54
  Q 129.71 15.99 126.51 19.47
  C 124.02 22.17 124.58 26.71 122.94 28.95
  C 118.67 34.74 106.80 34.00 100.74 32.85
  A 1.24 1.23 5.2 0 0 99.27 34.07
  L 99.37 48.93
  Q 99.38 49.67 100.12 49.71
  Z
  M 50.49 249.49
  L 214.25 249.50
  A 1.00 1.00 0.0 0 0 215.25 248.50
  L 215.25 51.12
  A 1.38 1.37 -0.0 0 0 213.87 49.75
  L 183.81 49.91
  A 1.26 1.26 0.0 0 0 182.58 50.94
  C 181.63 56.16 182.86 66.47 174.25 66.48
  Q 133.03 66.53 91.82 66.45
  C 82.35 66.43 83.09 57.64 82.73 50.97
  A 1.29 1.29 0.0 0 0 81.44 49.75
  L 50.50 49.75
  A 0.75 0.75 0.0 0 0 49.75 50.50
  L 49.73 248.75
  A 0.76 0.74 -0.0 0 0 50.49 249.49
  Z"
/>
<path fill="#324054" d="
  M 90.53 128.71
  A 1.09 1.09 0.0 0 0 92.04 128.63
  Q 102.16 117.77 112.66 107.41
  C 116.56 103.57 122.90 97.96 127.80 100.29
  C 135.47 103.93 130.75 113.03 126.66 117.15
  Q 111.86 132.10 96.93 146.94
  C 92.45 151.39 88.70 149.57 84.33 145.93
  Q 74.38 137.64 68.00 129.49
  C 62.49 122.44 71.66 113.31 79.12 117.81
  C 82.51 119.86 86.71 125.37 90.53 128.71
  Z"
/>
<rect fill="#324054" x="-24.57" y="-8.22" transform="translate(173.90,124.72) rotate(-0.1)" width="49.14" height="16.44" rx="7.92"/>
<path fill="#324054" d="
  M 81.94 210.38
  C 77.52 206.08 68.06 198.69 66.72 192.59
  C 65.57 187.36 70.25 182.80 75.33 183.16
  C 80.52 183.52 86.53 191.33 90.03 194.97
  A 1.42 1.42 0.0 0 0 92.08 194.97
  C 100.56 186.01 109.78 175.28 119.79 168.04
  C 125.12 164.18 132.11 166.91 131.77 174.01
  C 131.62 177.35 130.07 180.27 127.54 182.81
  Q 112.67 197.73 97.75 212.62
  C 91.49 218.88 87.03 215.33 81.94 210.38
  Z"
/>
<rect fill="#324054" x="149.29" y="183.02" width="49.22" height="16.24" rx="7.84"/>
</svg>
