<svg width="25" height="25" viewBox="0 0 25 25" fill="none" xmlns="http://www.w3.org/2000/svg">
<g clip-path="url(#clip0_935_716)">
<path d="M12.0068 0.789307H12.1943C13.1193 0.905557 13.7756 1.37618 14.1631 2.20118C14.1906 2.25743 14.2356 2.28618 14.2981 2.28743C15.1831 2.29681 16.9793 1.95181 16.5518 3.61118C16.5464 3.63255 16.5459 3.65489 16.5504 3.67647C16.555 3.69805 16.5644 3.71831 16.578 3.73569C16.5915 3.75307 16.6089 3.76711 16.6288 3.77673C16.6486 3.78635 16.6704 3.79129 16.6924 3.79118C17.5187 3.78618 18.3481 3.78681 19.1806 3.79306C20.6881 3.80431 21.0856 4.44931 21.0856 5.93056C21.0918 11.5206 21.0924 17.1112 21.0874 22.7024C21.0856 23.8349 20.8474 24.5887 19.6718 24.7893H4.53119C3.29932 24.6018 3.09307 23.8031 3.09119 22.6406C3.08744 16.8718 3.08744 11.1037 3.09119 5.33618C3.09119 3.25493 6.18682 3.78368 7.48619 3.79118C7.50824 3.79129 7.53003 3.78635 7.54987 3.77673C7.56972 3.76711 7.5871 3.75307 7.60068 3.73569C7.61425 3.71831 7.62367 3.69805 7.6282 3.67647C7.63273 3.65489 7.63226 3.63255 7.62682 3.61118C7.19932 1.95181 8.99557 2.29868 9.88057 2.28743C9.94307 2.28618 9.98807 2.25743 10.0156 2.20118C10.4068 1.36868 11.0706 0.898057 12.0068 0.789307ZM11.1462 3.50618C10.7974 3.90931 9.69494 3.82493 9.21494 3.76681C9.13119 3.75556 9.08932 3.79243 9.08932 3.87743V5.17118C9.08932 5.24993 9.12869 5.28931 9.20744 5.28931H14.9487C15.0424 5.28931 15.0893 5.24243 15.0893 5.14868V3.89243C15.0893 3.82993 15.0581 3.79743 14.9956 3.79493C14.5287 3.78181 13.6174 3.89618 13.2368 3.66556C12.6387 3.29993 12.8749 1.79806 11.6749 2.43368C11.2718 2.64743 11.4199 3.19118 11.1462 3.50618ZM16.6043 5.52368C16.6156 6.06368 16.4881 6.78368 15.9218 6.78556C13.4518 6.79181 10.9818 6.79181 8.51182 6.78556C7.52744 6.78181 7.63432 6.16681 7.58557 5.40931C7.58057 5.32931 7.53807 5.28931 7.45807 5.28931H4.66432C4.64442 5.28931 4.62535 5.29741 4.61128 5.31182C4.59722 5.32624 4.58932 5.34579 4.58932 5.36618V23.1956C4.58932 23.2204 4.59919 23.2443 4.61677 23.2618C4.63436 23.2794 4.6582 23.2893 4.68307 23.2893H19.4956C19.5204 23.2893 19.5443 23.2794 19.5619 23.2618C19.5794 23.2443 19.5893 23.2204 19.5893 23.1956V5.42993C19.5893 5.33618 19.5424 5.28931 19.4487 5.28931H16.8331C16.6781 5.28931 16.6018 5.36743 16.6043 5.52368Z" fill="white"/>
<path d="M8.44063 12.3749C8.95251 11.8743 10.6606 9.91488 11.2363 9.80613C12.0988 9.64488 12.2619 10.6649 11.69 11.2405C10.7513 12.1843 9.80938 13.1261 8.86438 14.0661C8.42563 14.503 7.97751 14.2255 7.59501 13.8468C7.20313 13.4586 6.26001 12.6843 6.11751 12.1911C5.97501 11.6886 6.56188 11.1524 7.08688 11.3361C7.47313 11.4711 7.92313 12.1105 8.26438 12.3824C8.32563 12.4324 8.38438 12.4299 8.44063 12.3749Z" fill="white"/>
<path d="M17.3544 11.2986H14.3244C13.9288 11.2986 13.6082 11.6193 13.6082 12.0148V12.0636C13.6082 12.4592 13.9288 12.7798 14.3244 12.7798H17.3544C17.75 12.7798 18.0707 12.4592 18.0707 12.0636V12.0148C18.0707 11.6193 17.75 11.2986 17.3544 11.2986Z" fill="white"/>
<path d="M8.44063 18.3749C8.95251 17.8743 10.6606 15.9149 11.2363 15.8061C12.0988 15.6449 12.2619 16.6649 11.69 17.2405C10.7513 18.1843 9.80938 19.1261 8.86438 20.0661C8.42563 20.503 7.97751 20.2255 7.59501 19.8468C7.20126 19.4568 6.26001 18.6843 6.11751 18.1893C5.96938 17.6755 6.60126 17.1205 7.12626 17.353C7.50501 17.518 7.91001 18.0993 8.26251 18.3843C8.32376 18.4343 8.38313 18.4311 8.44063 18.3749Z" fill="white"/>
<path d="M17.3544 17.2986H14.3244C13.9288 17.2986 13.6082 17.6193 13.6082 18.0148V18.0636C13.6082 18.4592 13.9288 18.7798 14.3244 18.7798H17.3544C17.75 18.7798 18.0707 18.4592 18.0707 18.0636V18.0148C18.0707 17.6193 17.75 17.2986 17.3544 17.2986Z" fill="white"/>
</g>
<defs>
<clipPath id="clip0_935_716">
<rect width="24" height="24" fill="white" transform="translate(0.0893555 0.789307)"/>
</clipPath>
</defs>
</svg>
