<svg width="22" height="22" viewBox="0 0 22 22" fill="none" xmlns="http://www.w3.org/2000/svg">
<path d="M17.2841 17.2012C16.1278 17.2012 15.2008 18.1283 15.2008 19.2845C15.2008 19.8371 15.4203 20.367 15.811 20.7577C16.2017 21.1484 16.7316 21.3679 17.2841 21.3679C17.8366 21.3679 18.3665 21.1484 18.7572 20.7577C19.1479 20.367 19.3674 19.8371 19.3674 19.2845C19.3674 18.732 19.1479 18.2021 18.7572 17.8114C18.3665 17.4207 17.8366 17.2012 17.2841 17.2012ZM0.617432 0.534546V2.61788H2.70077L6.45077 10.5241L5.0341 13.0762C4.87785 13.3679 4.7841 13.7116 4.7841 14.0762C4.7841 14.6287 5.00359 15.1587 5.39429 15.5494C5.78499 15.9401 6.3149 16.1595 6.86743 16.1595H19.3674V14.0762H7.30493C7.23587 14.0762 7.16963 14.0488 7.12079 13.9999C7.07195 13.9511 7.04452 13.8849 7.04452 13.8158C7.04452 13.7637 7.05493 13.722 7.07577 13.6908L8.01327 11.9929H15.7737C16.5549 11.9929 17.2424 11.5554 17.5966 10.92L21.3258 4.18038C21.3987 4.01371 21.4508 3.83663 21.4508 3.65955C21.4508 3.38328 21.341 3.11833 21.1457 2.92298C20.9503 2.72763 20.6854 2.61788 20.4091 2.61788H5.00285L4.02368 0.534546M6.86743 17.2012C5.71118 17.2012 4.7841 18.1283 4.7841 19.2845C4.7841 19.8371 5.00359 20.367 5.39429 20.7577C5.78499 21.1484 6.3149 21.3679 6.86743 21.3679C7.41997 21.3679 7.94987 21.1484 8.34057 20.7577C8.73127 20.367 8.95077 19.8371 8.95077 19.2845C8.95077 18.732 8.73127 18.2021 8.34057 17.8114C7.94987 17.4207 7.41997 17.2012 6.86743 17.2012Z" fill="#324054"/>
</svg>
