<svg width="16" height="16" viewBox="0 0 16 16" fill="none" xmlns="http://www.w3.org/2000/svg">
<g clip-path="url(#clip0_523_2359)">
<path d="M5.5957 0.500024C5.1293 0.48887 4.66538 0.571101 4.23122 0.74188C3.79707 0.912658 3.40145 1.16853 3.06764 1.49446C2.73383 1.82038 2.46857 2.20977 2.28746 2.63972C2.10635 3.06966 2.01306 3.53149 2.01306 3.99802C2.01306 4.46456 2.10635 4.92638 2.28746 5.35633C2.46857 5.78628 2.73383 6.17567 3.06764 6.50159C3.40145 6.82751 3.79707 7.08339 4.23122 7.25417C4.66538 7.42495 5.1293 7.50718 5.5957 7.49602C6.06211 7.50718 6.52603 7.42495 6.96018 7.25417C7.39434 7.08339 7.78995 6.82751 8.12376 6.50159C8.45757 6.17567 8.72284 5.78628 8.90394 5.35633C9.08505 4.92638 9.17835 4.46456 9.17835 3.99802C9.17835 3.53149 9.08505 3.06966 8.90394 2.63972C8.72284 2.20977 8.45757 1.82038 8.12376 1.49446C7.78995 1.16853 7.39434 0.912658 6.96018 0.74188C6.52603 0.571101 6.06211 0.48887 5.5957 0.500024ZM3.5957 9.49402C2.66745 9.49402 1.77721 9.86277 1.12083 10.5191C0.464452 11.1755 0.0957031 12.0658 0.0957031 12.994L0.0957031 15.491H11.0957V12.994C11.0957 12.0658 10.727 11.1755 10.0706 10.5191C9.4142 9.86277 8.52396 9.49402 7.5957 9.49402H3.5957ZM12.5957 10.5H12.0957V15.5H15.0957V13C15.0957 12.337 14.8323 11.7011 14.3635 11.2323C13.8946 10.7634 13.2587 10.5 12.5957 10.5Z" fill="#8B939D"/>
<path d="M11.5957 4.5C10.9327 4.5 10.2968 4.76339 9.82794 5.23223C9.3591 5.70107 9.0957 6.33696 9.0957 7C9.0957 7.66304 9.3591 8.29893 9.82794 8.76777C10.2968 9.23661 10.9327 9.5 11.5957 9.5C12.2587 9.5 12.8946 9.23661 13.3635 8.76777C13.8323 8.29893 14.0957 7.66304 14.0957 7C14.0957 6.33696 13.8323 5.70107 13.3635 5.23223C12.8946 4.76339 12.2587 4.5 11.5957 4.5Z" fill="#8B939D"/>
</g>
<defs>
<clipPath id="clip0_523_2359">
<rect width="15" height="15" fill="white" transform="translate(0.0957031 0.5)"/>
</clipPath>
</defs>
</svg>
