<svg width="26" height="20" viewBox="0 0 26 20" fill="none" xmlns="http://www.w3.org/2000/svg">
<g clip-path="url(#clip0_523_2308)">
<path d="M8.36899 0.5C8.67368 0.5 8.92759 0.711523 9.02134 0.989844C9.50181 2.42598 10.9198 3.46875 12.5956 3.46875C14.2713 3.46875 15.6893 2.42598 16.1698 0.989844C16.2635 0.711523 16.5174 0.5 16.8221 0.5H17.3143C18.1932 0.5 19.0409 0.793164 19.7167 1.32754L24.6463 5.22773C24.9042 5.43184 25.0643 5.72871 25.0917 6.04785C25.119 6.36699 25.0096 6.68242 24.787 6.92363L22.5995 9.29863C22.1542 9.78477 21.3807 9.84043 20.8573 9.42852L18.8456 7.83652V17.125C18.8456 18.435 17.7245 19.5 16.3456 19.5H8.84556C7.46665 19.5 6.34556 18.435 6.34556 17.125V7.83652L4.33384 9.42852C3.81431 9.84043 3.04087 9.78477 2.59165 9.29863L0.40415 6.92363C0.181493 6.68242 0.0721185 6.36699 0.0994622 6.04785C0.126806 5.72871 0.286962 5.43184 0.544775 5.22773L5.47446 1.32754C6.15024 0.793164 6.9979 0.5 7.87681 0.5H8.36899Z" fill="#219653"/>
</g>
<defs>
<clipPath id="clip0_523_2308">
<rect width="25" height="19" fill="white" transform="translate(0.0957031 0.5)"/>
</clipPath>
</defs>
</svg>
